# xmcd
#
# Track frame offsets:
#	150
#	13964
#	28553
#	41552
#	56275
#	76176
#	98921
#	118876
#	142071
#	158161
#	175738
#	208127
#	229081
#	243029
#	259062
#	280576
#
# Disc length: 4039 seconds
#
# Revision: 1
# Processed by: cddbd v1.5.2PL0 Copyright (c) Steve Scherf et al.
# Submitted via: audiograbber 1.83.01
#
DISCID=d30fc510
DTITLE=Jamil - Blues Attempt
DYEAR=2010
DGENRE=Québécois
TTITLE0=Got my mojo working
TTITLE1=Run through the jungle
TTITLE2=Suzie Q
TTITLE3=Unchain my heart
TTITLE4=Mustang Sally
TTITLE5=I feel good
TTITLE6=The thrill is gone
TTITLE7=Poubelle
TTITLE8=Les vieux
TTITLE9=Pitie pour les femmes
TTITLE10=Les spermatozoides
TTITLE11=Chuis beau
TTITLE12=Soul man
TTITLE13=Minnie the moocher
TTITLE14=Hoochie coochie man
TTITLE15=In the midnight hour
EXTD=
EXTT0=
EXTT1=
EXTT2=
EXTT3=
EXTT4=
EXTT5=
EXTT6=
EXTT7=
EXTT8=
EXTT9=
EXTT10=
EXTT11=
EXTT12=
EXTT13=
EXTT14=
EXTT15=
PLAYORDER=
